<?xml version="1.0" encoding="utf-8"?>
<!-- Generator: Adobe Illustrator 23.0.1, SVG Export Plug-In . SVG Version: 6.00 Build 0)  -->
<svg version="1.1" id="Layer_1" xmlns="http://www.w3.org/2000/svg" xmlns:xlink="http://www.w3.org/1999/xlink" x="0px" y="0px"
	 viewBox="0 0 240 190" style="enable-background:new 0 0 240 190;" xml:space="preserve">
<style type="text/css">
	.st0{fill:url(#SVGID_1_);}
	.st1{fill:url(#SVGID_2_);}
	.st2{fill:#ECEFF1;}
	.st3{fill:#2D6C71;}
	.st4{fill:url(#SVGID_3_);}
	.st5{fill:url(#SVGID_4_);}
	.st6{fill:url(#SVGID_5_);}
	.st7{opacity:0.2;enable-background:new    ;}
</style>
<linearGradient id="SVGID_1_" gradientUnits="userSpaceOnUse" x1="118.7084" y1="16.26" x2="118.7084" y2="38.9911" gradientTransform="matrix(1 0 0 -1 0 192)">
	<stop  offset="0" style="stop-color:#808080;stop-opacity:0.25"/>
	<stop  offset="0.54" style="stop-color:#808080;stop-opacity:0.12"/>
	<stop  offset="1" style="stop-color:#808080;stop-opacity:0.1"/>
</linearGradient>
<polygon class="st0" points="140.3,153 97.2,153 97.2,168.2 101.9,168.2 101.9,175.7 135.5,175.7 135.5,168.2 140.3,168.2 "/>
<linearGradient id="SVGID_2_" gradientUnits="userSpaceOnUse" x1="263.5512" y1="-95.7943" x2="263.5512" y2="16.6092" gradientTransform="matrix(1 0 0 -1 -146.06 62.87)">
	<stop  offset="0" style="stop-color:#808080;stop-opacity:0.25"/>
	<stop  offset="0.54" style="stop-color:#808080;stop-opacity:0.12"/>
	<stop  offset="1" style="stop-color:#808080;stop-opacity:0.1"/>
</linearGradient>
<path class="st1" d="M120.2,46.5v51.9c5.2,1.5,7.4,3.1,8.7,6.5c1.1,3,1.3,6.3,0.5,9.5c-0.8,3.5-2.3,5.3-6.4,6.4
	c-2.3,0.6-4.7,0.7-7.1,0.2c-5.6-1.1-8.6-5-8.6-11.3c0-6.1,2.1-9.3,7.8-11.2v-9.7l-0.2-42.5l-42.3,62.9c0,0,20.2,16.9,27.6,49.5h34.4
	c0,0,10.4-37.9,27.6-47.2L120.2,46.5z"/>
<path class="st2" d="M120.9,49v48.2c7.5,1.3,12.5,8.3,11.2,15.8c-1.3,7.5-8.3,12.5-15.8,11.2c-7.5-1.3-12.5-8.3-11.2-15.8
	c0.8-4.9,4.3-9,8.9-10.6V49l-38.8,59.4c0,0,20.6,18.3,27.4,50.2h29.7c0,0,11.4-38.8,27.4-48L120.9,49z"/>
<rect x="22.7" y="23.9" class="st2" width="91.4" height="4.6"/>
<rect x="125.5" y="23.9" class="st2" width="91.4" height="4.6"/>
<rect x="102.6" y="163.2" class="st3" width="32" height="11.4"/>
<linearGradient id="SVGID_3_" gradientUnits="userSpaceOnUse" x1="119.6755" y1="158.3095" x2="119.6755" y2="175.7162" gradientTransform="matrix(1 0 0 -1 0 192)">
	<stop  offset="0" style="stop-color:#808080;stop-opacity:0.25"/>
	<stop  offset="0.54" style="stop-color:#808080;stop-opacity:0.12"/>
	<stop  offset="1" style="stop-color:#808080;stop-opacity:0.1"/>
</linearGradient>
<rect x="111" y="16.3" class="st4" width="17.4" height="17.4"/>
<rect x="111.8" y="17.1" class="st3" width="16" height="16"/>
<linearGradient id="SVGID_4_" gradientUnits="userSpaceOnUse" x1="18.1485" y1="155.5888" x2="18.1485" y2="176" gradientTransform="matrix(1 0 0 -1 0 192)">
	<stop  offset="0" style="stop-color:#808080;stop-opacity:0.25"/>
	<stop  offset="0.54" style="stop-color:#808080;stop-opacity:0.12"/>
	<stop  offset="1" style="stop-color:#808080;stop-opacity:0.1"/>
</linearGradient>
<circle class="st5" cx="18.1" cy="26.2" r="10.2"/>
<linearGradient id="SVGID_5_" gradientUnits="userSpaceOnUse" x1="223.7215" y1="155.5888" x2="223.7215" y2="176" gradientTransform="matrix(1 0 0 -1 0 192)">
	<stop  offset="0" style="stop-color:#808080;stop-opacity:0.25"/>
	<stop  offset="0.54" style="stop-color:#808080;stop-opacity:0.12"/>
	<stop  offset="1" style="stop-color:#808080;stop-opacity:0.1"/>
</linearGradient>
<circle class="st6" cx="223.7" cy="26.2" r="10.2"/>
<circle class="st3" cx="18.1" cy="26.2" r="9.1"/>
<circle class="st3" cx="223.7" cy="26.2" r="9.1"/>
<rect x="98.1" y="154.1" class="st3" width="41.1" height="13.7"/>
<rect x="98.1" y="154.1" class="st7" width="41.1" height="13.7"/>
</svg>
