<?xml version="1.0" encoding="utf-8"?>
<!-- Generator: Adobe Illustrator 23.0.1, SVG Export Plug-In . SVG Version: 6.00 Build 0)  -->
<svg version="1.1" id="Layer_1" xmlns:figma="http://www.figma.com/figma/ns"
	 xmlns="http://www.w3.org/2000/svg" xmlns:xlink="http://www.w3.org/1999/xlink" x="0px" y="0px" viewBox="0 0 109 24"
	 style="enable-background:new 0 0 109 24;" xml:space="preserve">
<style type="text/css">
	.st0{fill:#2D6C71;}
	.st1{fill:#3C9698;}
	.st2{fill:#EDECED;}
	.st3{fill:#535561;}
</style>
<title>Logo</title>
<g>
	<path class="st0" d="M0.8,19.2V6.5h8.9v2.6H4.1v2.3h5.2V14H4.1v5.2H0.8z"/>
	<path class="st0" d="M22.7,19.2h-3.7l-2.2-4.1c-0.3-0.5-0.7-0.7-1.3-0.7h-1v4.8h-3.3V6.5h6.1c1.5,0,2.7,0.3,3.5,1
		c0.8,0.7,1.2,1.6,1.2,2.9c0,1-0.3,1.8-0.8,2.4c-0.5,0.7-1.3,1.1-2.2,1.3c0.7,0.2,1.3,0.6,1.8,1.4L22.7,19.2z M18.4,11.6
		c0.3-0.2,0.5-0.6,0.5-1.1c0-0.5-0.2-0.9-0.5-1.1C18.1,9.1,17.5,9,16.8,9h-2.3v3h2.3C17.5,11.9,18.1,11.8,18.4,11.6z"/>
	<path class="st0" d="M24,19.2V6.5h9.1V9h-5.8v2.4h5.5V14h-5.5v2.6h5.8v2.6H24z"/>
	<path class="st0" d="M34.8,19.2V6.5h9.1V9h-5.8v2.4h5.5V14h-5.5v2.6h5.8v2.6H34.8z"/>
	<path class="st0" d="M45.6,19.2V6.5h3.3v10h5.4v2.7H45.6z"/>
	<path class="st0" d="M66.8,19.2l-1.1-2.6H60l-1.1,2.6h-3.3l5.9-12.7h2.6l6,12.7H66.8z M61.1,14.1h3.5L62.9,10L61.1,14.1z"/>
	<path class="st0" d="M79.3,6.5h3.1v12.7h-2.5l-5.8-7.3v7.3H71V6.5h2.4l5.8,7.3V6.5z"/>
	<path class="st0" d="M86.5,18.6c-1-0.5-1.7-1.3-2.3-2.3c-0.5-1-0.8-2.1-0.8-3.4c0-1.3,0.3-2.4,0.8-3.4c0.5-1,1.3-1.7,2.3-2.3
		c1-0.5,2.1-0.8,3.5-0.8c0.8,0,1.6,0.1,2.4,0.4c0.8,0.3,1.4,0.6,1.9,1l-1,2.3c-1-0.7-2.1-1.1-3.2-1.1c-1,0-1.8,0.3-2.4,1
		c-0.5,0.7-0.8,1.6-0.8,2.9c0,1.3,0.3,2.3,0.8,2.9c0.5,0.7,1.3,1,2.4,1c1.1,0,2.2-0.4,3.2-1.1l1,2.3c-0.5,0.4-1.1,0.8-1.9,1
		c-0.8,0.3-1.6,0.4-2.4,0.4C88.7,19.4,87.5,19.1,86.5,18.6z"/>
	<g>
		<path class="st1" d="M107.8,19.4H96c-0.3,0-0.6-0.3-0.6-0.6l0,0c0-0.3,0.3-0.6,0.6-0.6h11.8c0.3,0,0.6,0.3,0.6,0.6l0,0
			C108.4,19.1,108.2,19.4,107.8,19.4z"/>
		<g id="XMLID_2_">
			<g>
				<path class="st1" d="M107.8,9.1c0.5,0.9,0.8,1.9,0.8,3.1c0,1.2-0.3,2.2-0.8,3.1c-0.5,0.9-1.3,1.5-2.3,2c-1,0.5-2.2,0.7-3.5,0.7
					c-1.4,0-2.5-0.2-3.5-0.7c-1-0.5-1.8-1.1-2.3-2c-0.5-0.9-0.8-1.9-0.8-3.1c0-1.2,0.3-2.2,0.8-3.1c0.5-0.9,1.3-1.5,2.3-2
					c1-0.5,2.2-0.7,3.5-0.7c1.4,0,2.5,0.2,3.5,0.7C106.5,7.6,107.2,8.2,107.8,9.1z M107.5,12.2c0-1.5-0.5-2.6-1.5-3.4
					c-1-0.8-2.4-1.2-4.1-1.2c-1.8,0-3.2,0.4-4.1,1.2c-1,0.8-1.5,1.9-1.5,3.4c0,1.5,0.5,2.6,1.5,3.4c1,0.8,2.4,1.2,4.1,1.2
					c1.8,0,3.2-0.4,4.1-1.2C107.1,14.8,107.5,13.6,107.5,12.2z"/>
				<path class="st2" d="M106.1,8.8c1,0.8,1.5,1.9,1.5,3.4s-0.5,2.6-1.5,3.4c-1,0.8-2.4,1.2-4.1,1.2c-1.8,0-3.2-0.4-4.1-1.2
					c-1-0.8-1.5-1.9-1.5-3.4c0-1.5,0.5-2.6,1.5-3.4c1-0.8,2.4-1.2,4.1-1.2C103.7,7.6,105.1,8,106.1,8.8z"/>
			</g>
			<g>
			</g>
		</g>
		<path class="st3" d="M103.9,13.8c0,1.1-0.9,2-2,2s-2-0.9-2-2"/>
		<g>
			<circle class="st3" cx="100.1" cy="12.4" r="0.3"/>
			<circle class="st3" cx="103.8" cy="12.4" r="0.3"/>
		</g>
	</g>
</g>
</svg>
