<?xml version="1.0" encoding="utf-8"?>
<!-- Generator: Adobe Illustrator 23.0.1, SVG Export Plug-In . SVG Version: 6.00 Build 0)  -->
<svg version="1.1" id="Layer_1" xmlns:figma="http://www.figma.com/figma/ns"
	 xmlns="http://www.w3.org/2000/svg" xmlns:xlink="http://www.w3.org/1999/xlink" x="0px" y="0px" viewBox="0 0 109 24"
	 style="enable-background:new 0 0 109 24;" xml:space="preserve">
<style type="text/css">
	.st0{fill:none;}
	.st1{fill:#2D6C71;}
	.st2{fill:#3B8087;}
</style>
<title>Logo</title>
<path class="st0" d="M41.8,1.2h-4.2v21.5h4.2c3.2,0,4.4-2.3,4.4-5.2V6.5C46.2,3.5,45,1.2,41.8,1.2z"/>
<polygon class="st1" points="10.9,16.7 8.3,0.9 3.5,0.9 3.5,23.1 6.5,23.1 6.5,7.4 9.1,23.1 12.4,23.1 14.8,7.2 14.8,23.1 
	18.1,23.1 18.1,0.9 13.2,0.9 "/>
<polygon class="st1" points="27.8,11 25.2,0.9 21.5,0.9 25.9,15.7 25.9,23.1 29.4,23.1 29.4,15.7 33.8,0.9 30.5,0.9 "/>
<path class="st2" d="M41.8,0.9h-4.5v22.2h4.5c3.4,0,4.7-2.4,4.7-5.5V6.5C46.5,3.4,45.2,0.9,41.8,0.9z M46.2,17.6
	c0,2.9-1.2,5.2-4.4,5.2h-4.2V1.2h4.2c3.2,0,4.4,2.3,4.4,5.2V17.6z"/>
<polygon class="st2" points="51.1,23.1 59.4,23.1 59.4,22.8 51.4,22.8 51.4,12 58.2,12 58.2,11.7 51.4,11.7 51.4,1.2 59.4,1.2 
	59.4,0.9 51.1,0.9 "/>
<path class="st2" d="M64.4,6.2c0-2.8,1-5.2,4.2-5.2s4.2,2.4,4.2,5.2v0.4h0.3V6.3c0-3-1.2-5.5-4.5-5.5c-3.2,0-4.5,2.3-4.5,5.5
	c0,6.1,8.7,5.8,8.7,11.5c0,2.8-1.1,5.2-4.2,5.2c-3.2,0-4.2-2.3-4.2-5.2v-1H64v1c0,3,1.2,5.5,4.6,5.5c3.4,0,4.6-2.5,4.6-5.5
	C73.1,11.7,64.4,12.1,64.4,6.2z"/>
<rect x="77.7" y="0.9" class="st2" width="0.3" height="22.2"/>
<path class="st2" d="M87.2,0.8c-3.4,0-4.6,2.6-4.6,5.6v11.3c0,3,1.2,5.6,4.6,5.6c3.4,0,4.6-2.6,4.6-5.6v-5.5h-4.1v0.3h3.7v5.2
	c0,2.8-1.1,5.3-4.2,5.3c-3.2,0-4.2-2.5-4.2-5.3V6.4c0-2.8,1.1-5.3,4.2-5.3c3.2,0,4.2,2.5,4.2,5.3v1.4h0.3V6.4
	C91.7,3.4,90.5,0.8,87.2,0.8z"/>
<polygon class="st2" points="105.2,0.9 105.2,22.7 96.9,0.9 96.3,0.9 96.3,23.1 96.6,23.1 96.6,1.2 105.1,23.1 105.5,23.1 
	105.5,0.9 "/>
<polygon class="st0" points="56.4,-11.7 63.2,-11.7 63.2,-11.7 56.4,-11.7 "/>
</svg>
