<?xml version="1.0" encoding="utf-8"?>
<!-- Generator: Adobe Illustrator 23.0.1, SVG Export Plug-In . SVG Version: 6.00 Build 0)  -->
<svg version="1.1" id="Layer_1" xmlns:figma="http://www.figma.com/figma/ns"
	 xmlns="http://www.w3.org/2000/svg" xmlns:xlink="http://www.w3.org/1999/xlink" x="0px" y="0px" viewBox="0 0 144 24"
	 style="enable-background:new 0 0 144 24;" xml:space="preserve">
<style type="text/css">
	.st0{fill:#2D6C71;}
	.st1{fill:#3C9698;}
	.st2{fill:#EDECED;}
	.st3{fill:#535561;}
</style>
<title>Logo</title>
<g>
	<path class="st0" d="M1.2,20.4V3.6h11.7V7H5.5v3.1h6.9v3.4H5.5v6.8H1.2z"/>
	<path class="st0" d="M30,20.4h-4.8L22.3,15c-0.4-0.6-0.9-0.9-1.7-0.9h-1.3v6.3h-4.3V3.6h8c2,0,3.6,0.4,4.6,1.3s1.5,2.2,1.5,3.8
		c0,1.3-0.3,2.3-1,3.2c-0.7,0.9-1.7,1.5-3,1.8c1,0.2,1.7,0.8,2.3,1.9L30,20.4z M24.3,10.4c0.4-0.3,0.6-0.8,0.6-1.5
		c0-0.7-0.2-1.2-0.6-1.5c-0.4-0.3-1.1-0.5-2.1-0.5h-3v3.9h3C23.2,10.8,23.9,10.7,24.3,10.4z"/>
	<path class="st0" d="M31.8,20.4V3.6h11.9V7H36v3.2h7.2v3.4H36V17h7.7v3.4H31.8z"/>
	<path class="st0" d="M46,20.4V3.6h11.9V7h-7.7v3.2h7.2v3.4h-7.2V17h7.7v3.4H46z"/>
	<path class="st0" d="M60.2,20.4V3.6h4.4v13.2h7.1v3.5H60.2z"/>
	<path class="st0" d="M88.2,20.4l-1.5-3.5h-7.4l-1.5,3.5h-4.4l7.8-16.8h3.5l7.9,16.8H88.2z M80.6,13.6h4.6l-2.3-5.4L80.6,13.6z"/>
	<path class="st0" d="M104.6,3.6h4.1v16.8h-3.2l-7.7-9.6v9.6h-4.1V3.6h3.2l7.7,9.6V3.6z"/>
	<path class="st0" d="M114.2,19.5c-1.3-0.7-2.3-1.7-3-3c-0.7-1.3-1-2.8-1-4.5c0-1.7,0.3-3.2,1-4.5c0.7-1.3,1.7-2.3,3-3
		c1.3-0.7,2.8-1.1,4.6-1.1c1.1,0,2.2,0.2,3.2,0.5c1,0.3,1.9,0.8,2.5,1.3l-1.4,3.1c-1.4-1-2.8-1.5-4.2-1.5c-1.4,0-2.4,0.4-3.1,1.3
		c-0.7,0.9-1.1,2.1-1.1,3.8c0,1.7,0.4,3,1.1,3.8c0.7,0.9,1.8,1.3,3.1,1.3c1.4,0,2.9-0.5,4.2-1.5l1.4,3.1c-0.7,0.6-1.5,1-2.5,1.3
		c-1,0.3-2.1,0.5-3.2,0.5C117,20.6,115.5,20.3,114.2,19.5z"/>
	<g>
		<path class="st1" d="M142.3,20.6h-15.6c-0.4,0-0.8-0.3-0.8-0.8l0,0c0-0.4,0.3-0.8,0.8-0.8h15.6c0.4,0,0.8,0.3,0.8,0.8l0,0
			C143,20.3,142.7,20.6,142.3,20.6z"/>
		<g id="XMLID_2_">
			<g>
				<path class="st1" d="M142.2,7.1c0.7,1.1,1,2.5,1,4.1c0,1.5-0.4,2.9-1,4c-0.7,1.1-1.7,2-3,2.6c-1.3,0.6-2.9,0.9-4.6,0.9
					c-1.8,0-3.3-0.3-4.7-0.9c-1.3-0.6-2.3-1.5-3-2.6c-0.7-1.1-1.1-2.5-1.1-4.1c0-1.6,0.4-2.9,1.1-4.1s1.7-2,3-2.6
					c1.3-0.6,2.9-0.9,4.6-0.9s3.3,0.3,4.7,0.9C140.4,5,141.5,5.9,142.2,7.1z M141.9,11.1c0-1.9-0.6-3.4-1.9-4.5
					c-1.3-1.1-3.1-1.6-5.5-1.6c-2.4,0-4.2,0.5-5.5,1.6c-1.3,1.1-1.9,2.6-1.9,4.5c0,1.9,0.6,3.4,1.9,4.5c1.3,1.1,3.1,1.6,5.4,1.6
					c2.3,0,4.2-0.5,5.5-1.6C141.2,14.5,141.9,13.1,141.9,11.1z"/>
				<path class="st2" d="M139.9,6.7c1.3,1.1,1.9,2.6,1.9,4.5s-0.6,3.4-1.9,4.5c-1.3,1.1-3.1,1.6-5.5,1.6c-2.3,0-4.2-0.5-5.4-1.6
					c-1.3-1.1-1.9-2.5-1.9-4.5c0-1.9,0.6-3.4,1.9-4.5c1.3-1.1,3.1-1.6,5.5-1.6C136.8,5.1,138.7,5.6,139.9,6.7z"/>
			</g>
			<g>
			</g>
		</g>
		<path class="st3" d="M137.1,13.2c0,1.5-1.2,2.6-2.6,2.6s-2.6-1.2-2.6-2.6"/>
		<g>
			<circle class="st3" cx="132" cy="11.5" r="0.4"/>
			<circle class="st3" cx="137" cy="11.5" r="0.4"/>
		</g>
	</g>
</g>
</svg>
