<?xml version="1.0" encoding="utf-8"?>
<!-- Generator: Adobe Illustrator 23.0.1, SVG Export Plug-In . SVG Version: 6.00 Build 0)  -->
<svg version="1.1" id="Layer_1" xmlns="http://www.w3.org/2000/svg" xmlns:xlink="http://www.w3.org/1999/xlink" x="0px" y="0px"
	 viewBox="0 0 240 190" style="enable-background:new 0 0 240 190;" xml:space="preserve">
<style type="text/css">
	.st0{fill:none;stroke:#E0E0E0;stroke-width:10;stroke-linecap:round;stroke-linejoin:round;stroke-dasharray:0,23;}
	.st1{fill:none;stroke:#E0E0E0;stroke-width:10;stroke-linecap:round;stroke-linejoin:round;}
	.st2{fill:none;stroke:#E0E0E0;stroke-width:10;stroke-linecap:round;stroke-linejoin:round;stroke-dasharray:0,23.61;}
	.st3{fill:url(#SVGID_1_);}
	.st4{fill:#FFFFFF;}
	.st5{fill:url(#SVGID_2_);}
	.st6{fill:#2D6C71;}
	.st7{fill:#BDBDBD;}
	.st8{fill:#E0E0E0;}
	.st9{fill:none;stroke:#BDBDBD;stroke-width:10;stroke-linecap:round;stroke-linejoin:round;}
	.st10{fill:none;stroke:#BDBDBD;stroke-width:10;stroke-linecap:round;stroke-linejoin:round;stroke-dasharray:0,22.87;}
	.st11{fill:none;stroke:#E0E0E0;stroke-width:10;stroke-linecap:round;stroke-linejoin:round;stroke-dasharray:0,22.87;}
	.st12{opacity:0.7;fill:#2D6C71;enable-background:new    ;}
	.st13{fill:none;stroke:#BDBDBD;stroke-width:10;stroke-linecap:round;stroke-linejoin:round;stroke-dasharray:0,24.01;}
</style>
<path class="st0" d="M169.1,87.2c0,0,6.1-22.5-6.1-45.6"/>
<line class="st1" x1="84.5" y1="84.7" x2="84.5" y2="84.7"/>
<path class="st2" d="M86.1,79.9c2.1-8.7,2.8-26.9-25.4-34.6"/>
<line class="st1" x1="58.2" y1="44.7" x2="58.2" y2="44.7"/>
<linearGradient id="SVGID_1_" gradientUnits="userSpaceOnUse" x1="122.4849" y1="11" x2="122.4849" y2="106.0754" gradientTransform="matrix(1 0 0 -1 0 192)">
	<stop  offset="0" style="stop-color:#808080;stop-opacity:0.25"/>
	<stop  offset="0.54" style="stop-color:#808080;stop-opacity:0.12"/>
	<stop  offset="1" style="stop-color:#808080;stop-opacity:0.1"/>
</linearGradient>
<rect x="34.9" y="85.9" class="st3" width="175.2" height="95.1"/>
<rect x="36.4" y="87.2" class="st4" width="172.4" height="91.3"/>
<linearGradient id="SVGID_2_" gradientUnits="userSpaceOnUse" x1="69.8693" y1="81.8744" x2="69.8693" y2="98.7286" gradientTransform="matrix(1 0 0 -1 0 192)">
	<stop  offset="0" style="stop-color:#B3B3B3;stop-opacity:0.25"/>
	<stop  offset="0.54" style="stop-color:#B3B3B3;stop-opacity:0.1"/>
	<stop  offset="1" style="stop-color:#B3B3B3;stop-opacity:5.000000e-02"/>
</linearGradient>
<circle class="st5" cx="69.9" cy="101.7" r="8.4"/>
<circle class="st6" cx="69.9" cy="101.7" r="7.6"/>
<rect x="87.2" y="98.9" class="st7" width="42.6" height="4.3"/>
<rect x="69.8" y="126.9" class="st8" width="106.3" height="4.3"/>
<rect x="69.8" y="117.4" class="st8" width="106.3" height="4.3"/>
<rect x="69.8" y="136.4" class="st8" width="106.3" height="4.3"/>
<rect x="69.8" y="145.9" class="st8" width="106.3" height="4.3"/>
<rect x="69.8" y="155.4" class="st8" width="106.3" height="4.3"/>
<rect x="69.8" y="164.9" class="st8" width="106.3" height="4.3"/>
<line class="st9" x1="52.7" y1="85.8" x2="52.7" y2="85.8"/>
<path class="st10" d="M53.1,80.9c0.2-4.7-0.4-11.7-4.5-16.3"/>
<line class="st9" x1="46.9" y1="62.9" x2="46.9" y2="62.9"/>
<line class="st1" x1="150.3" y1="87.8" x2="150.3" y2="87.8"/>
<path class="st11" d="M150.8,82.8c0.2-4.7-0.4-11.7-4.5-16.3"/>
<line class="st1" x1="144.5" y1="64.9" x2="144.5" y2="64.9"/>
<line class="st9" x1="191.9" y1="85.8" x2="191.9" y2="85.8"/>
<path class="st10" d="M191.4,80.9c-0.2-4.7,0.4-11.7,4.5-16.3"/>
<line class="st9" x1="197.7" y1="62.9" x2="197.7" y2="62.9"/>
<rect x="19.5" y="33.8" class="st12" width="24" height="13.1"/>
<rect x="150.9" y="24.9" class="st12" width="24" height="13.1"/>
<rect x="130.4" y="48.3" class="st12" width="24" height="13.1"/>
<rect x="37.5" y="36.6" class="st6" width="39.1" height="21.3"/>
<rect x="181.4" y="37.6" class="st6" width="39.1" height="21.3"/>
<rect x="92.9" y="9" class="st6" width="39.1" height="21.3"/>
<line class="st9" x1="109" y1="85.6" x2="109" y2="85.6"/>
<path class="st13" d="M110.9,80.8c1.3-4.6,2.2-12-2-19.6c-5.2-9.4-0.5-18.6,2.1-22.6"/>
<line class="st9" x1="112.5" y1="36.6" x2="112.5" y2="36.6"/>
</svg>
