<?xml version="1.0" encoding="utf-8"?>
<!-- Generator: Adobe Illustrator 23.0.1, SVG Export Plug-In . SVG Version: 6.00 Build 0)  -->
<svg version="1.1" id="Layer_1" xmlns="http://www.w3.org/2000/svg" xmlns:xlink="http://www.w3.org/1999/xlink" x="0px" y="0px"
	 viewBox="0 0 240 190" style="enable-background:new 0 0 240 190;" xml:space="preserve">
<style type="text/css">
	.st0{fill:url(#SVGID_1_);}
	.st1{fill:#FFFFFF;}
	.st2{fill:#F5F5F5;}
	.st3{fill:url(#SVGID_2_);}
	.st4{fill:url(#SVGID_3_);}
	.st5{fill:url(#SVGID_4_);}
	.st6{fill:#2D6C71;}
	.st7{fill:url(#SVGID_5_);}
	.st8{fill:#BDBDBD;}
	.st9{fill:#E0E0E0;}
</style>
<linearGradient id="SVGID_1_" gradientUnits="userSpaceOnUse" x1="121.1029" y1="123.1888" x2="121.1029" y2="161.384" gradientTransform="matrix(1 0 0 -1 0 192)">
	<stop  offset="0" style="stop-color:#808080;stop-opacity:0.25"/>
	<stop  offset="0.54" style="stop-color:#808080;stop-opacity:0.12"/>
	<stop  offset="1" style="stop-color:#808080;stop-opacity:0.1"/>
</linearGradient>
<rect x="17.8" y="30.6" class="st0" width="206.6" height="38.2"/>
<rect x="19" y="31.9" class="st1" width="203.8" height="34.9"/>
<rect x="31.6" y="39" class="st2" width="118.5" height="20.8"/>
<linearGradient id="SVGID_2_" gradientUnits="userSpaceOnUse" x1="352.5868" y1="-47.4575" x2="352.5868" y2="-18.9586" gradientTransform="matrix(1 0 0 -1 -161.5 18)">
	<stop  offset="0" style="stop-color:#B3B3B3;stop-opacity:0.25"/>
	<stop  offset="0.54" style="stop-color:#B3B3B3;stop-opacity:0.1"/>
	<stop  offset="1" style="stop-color:#B3B3B3;stop-opacity:5.000000e-02"/>
</linearGradient>
<path class="st3" d="M196,40.3c-4.2-4.4-11.1-4.5-15.5-0.3c-4.4,4.2-4.5,11.1-0.3,15.5c3.7,3.8,9.6,4.5,14,1.5l7.9,8.3
	c0.2,0.2,0.5,0.2,0.8,0c0,0,0,0,0,0l2-1.9c0.2-0.2,0.2-0.5,0-0.8c0,0,0,0,0,0l-7.9-8.3C200.1,50.1,199.7,44.2,196,40.3z M193.5,53.6
	c-3.1,3-8.1,2.9-11.1-0.2s-2.9-8.1,0.2-11.1c3.1-3,8.1-2.9,11.1,0.2C196.8,45.6,196.7,50.6,193.5,53.6L193.5,53.6z"/>
<linearGradient id="SVGID_3_" gradientUnits="userSpaceOnUse" x1="343.7903" y1="-29.116" x2="343.7903" y2="-27.7443" gradientTransform="matrix(1 0 0 -1 -161.5 18)">
	<stop  offset="0" style="stop-color:#000000;stop-opacity:0.12"/>
	<stop  offset="0.55" style="stop-color:#000000;stop-opacity:9.000000e-02"/>
	<stop  offset="1" style="stop-color:#000000;stop-opacity:2.000000e-02"/>
</linearGradient>
<path class="st4" d="M182.3,45.7c-0.9,0-0.9,1.4,0,1.4C183.2,47.1,183.2,45.7,182.3,45.7z"/>
<linearGradient id="SVGID_4_" gradientUnits="userSpaceOnUse" x1="350.0907" y1="-27.5406" x2="350.0907" y2="-23.3475" gradientTransform="matrix(1 0 0 -1 -161.5 18)">
	<stop  offset="0" style="stop-color:#000000;stop-opacity:0.12"/>
	<stop  offset="0.55" style="stop-color:#000000;stop-opacity:9.000000e-02"/>
	<stop  offset="1" style="stop-color:#000000;stop-opacity:2.000000e-02"/>
</linearGradient>
<path class="st5" d="M188.4,41.3c-2.3-0.1-4.4,1-5.7,2.9c-0.4,0.6,0.7,1.1,1.1,0.5c0.9-1.5,2.8-2.4,4.7-2.4c2,0.1,3.8,1.1,4.9,2.8
	c0.4,0.6,1.4,0.1,1-0.6C193.2,42.7,190.9,41.4,188.4,41.3z"/>
<path class="st6" d="M196,39.1c-4.2-4.4-11.1-4.5-15.5-0.3c-4.4,4.2-4.5,11.1-0.3,15.5c3.7,3.8,9.6,4.5,14,1.5l7.9,8.3
	c0.2,0.2,0.5,0.2,0.8,0c0,0,0,0,0,0l2-1.9c0.2-0.2,0.2-0.5,0-0.8c0,0,0,0,0,0l-7.9-8.3C200.1,48.9,199.7,43,196,39.1z M193.5,52.4
	c-3.1,3-8.1,2.9-11.1-0.2s-2.9-8.1,0.2-11.1c3.1-3,8.1-2.9,11.1,0.2C196.8,44.4,196.7,49.4,193.5,52.4L193.5,52.4z"/>
<path class="st6" d="M182.3,44.5c-0.9,0-0.9,1.4,0,1.4C183.2,45.9,183.2,44.5,182.3,44.5z"/>
<path class="st6" d="M188.4,40.1c-2.3-0.1-4.4,1-5.7,2.9c-0.4,0.6,0.7,1.1,1.1,0.5c0.9-1.5,2.8-2.4,4.7-2.4c2,0.1,3.8,1.1,4.9,2.8
	c0.4,0.6,1.4,0.1,1-0.6C193.2,41.5,190.9,40.2,188.4,40.1z"/>
<linearGradient id="SVGID_5_" gradientUnits="userSpaceOnUse" x1="119.7467" y1="30.616" x2="119.7467" y2="110.5977" gradientTransform="matrix(1 0 0 -1 0 192)">
	<stop  offset="0" style="stop-color:#808080;stop-opacity:0.25"/>
	<stop  offset="0.54" style="stop-color:#808080;stop-opacity:0.12"/>
	<stop  offset="1" style="stop-color:#808080;stop-opacity:0.1"/>
</linearGradient>
<rect x="16.6" y="81.4" class="st7" width="206.3" height="80"/>
<rect x="19" y="83.4" class="st1" width="201.4" height="75.5"/>
<circle class="st6" cx="45.3" cy="120.9" r="16.9"/>
<rect x="74.6" y="107.5" class="st8" width="70.5" height="8.5"/>
<rect x="74.6" y="124.8" class="st9" width="70.5" height="8.5"/>
<rect x="154.1" y="83.4" class="st6" width="66.7" height="75.5"/>
</svg>
